<?xml version="1.0" encoding="UTF-8" standalone="no"?>
<!-- Created with Inkscape (http://www.inkscape.org/) -->

<svg
   width="32"
   height="32"
   viewBox="0 0 32 32"
   version="1.1"
   id="svg1"
   xml:space="preserve"
   inkscape:version="1.4 (e7c3feb100, 2024-10-09)"
   sodipodi:docname="rafton-1.svg"
   xmlns:inkscape="http://www.inkscape.org/namespaces/inkscape"
   xmlns:sodipodi="http://sodipodi.sourceforge.net/DTD/sodipodi-0.dtd"
   xmlns="http://www.w3.org/2000/svg"
   xmlns:svg="http://www.w3.org/2000/svg"><sodipodi:namedview
     id="namedview1"
     pagecolor="#ffffff"
     bordercolor="#000000"
     borderopacity="0.25"
     inkscape:showpageshadow="2"
     inkscape:pageopacity="0.0"
     inkscape:pagecheckerboard="0"
     inkscape:deskcolor="#d1d1d1"
     inkscape:document-units="px"
     inkscape:zoom="90.509668"
     inkscape:cx="18.788048"
     inkscape:cy="15.909903"
     inkscape:window-width="1920"
     inkscape:window-height="1011"
     inkscape:window-x="0"
     inkscape:window-y="0"
     inkscape:window-maximized="1"
     inkscape:current-layer="layer1" /><defs
     id="defs1" /><g
     inkscape:label="Слой 1"
     inkscape:groupmode="layer"
     id="layer1"><path
       style="fill:#ffffff"
       d="m 23.732271,15.037068 -2.242854,0.287262 -3.18198,0.187825 -1.193243,0.05524 0.309359,0.563475 2.972058,0.629767 c 0,0 2.231806,-0.331456 2.342291,-0.320407 0.110486,0.01105 0.861787,-0.430894 0.861787,-0.430894 l 0.342505,-0.7513 z"
       id="path1" /><g
       id="g15"><path
         style="fill:#1a1a1a;fill-opacity:1"
         d="m 21.672335,25.954045 c 0,0 -0.241281,1.65161 0.319432,3.216529 0.604142,1.686126 1.663833,2.540134 1.663833,2.540134 0,0 1.285215,-1.396617 1.433899,-2.315372 0.189947,-1.173731 -0.276539,-2.425666 -0.276539,-2.425666 0,0 1.165585,0.617726 1.92385,0.806488 0.57043,0.142002 3.004974,-0.306723 2.984621,-0.460057 C 29.535584,25.91601 26.40671,23.360295 25.359835,23.18842"
         id="path12"
         sodipodi:nodetypes="cscscssc" /><path
         style="fill:#ffffff;fill-opacity:1"
         d="m 26.604893,17.567184 -0.773398,-0.464039 -4.286835,-0.0221 -0.441942,0.707107 -10.076272,0.15468 -1.016466,0.508233 -0.5082326,5.413786 -0.066291,3.027301 0.7954946,0.972272 h 14.606175 l 1.06066,-0.773398 1.126951,-7.601398 z"
         id="path11" /><path
         style="fill:#ea1940;fill-opacity:1"
         d="m 25.284991,13.448264 c 0,0 1.167512,-0.958697 1.189844,-1.438594 0.07469,-1.605 -3.80093,-3.8609534 -5.76,-4.9600001 0,0 -2.199234,-0.6538047 -2.295806,-0.8297184 -0.461405,-0.840486 -1.133825,-2.0707801 -1.804194,-2.8502816 -0.817795,-0.9509273 -2.413841,-2.2988076 -3.2,-2.28 -0.424531,0.010156 -0.68,0.037969 -0.66,0.38 0.01522,0.2603234 0.76,2.08 0.72,2.68 -0.04,0.6 0.04969,1.895 -0.138125,2.015 -0.182299,0.1164774 -1.430755,0.4674572 -2.101875,0.765 -0.966677,0.4285792 -2.335893,1.226349 -3.313125,2.2790625 -1.179629,1.2707436 -2.3742003,3.2892226 -2.38,4.9370316 -0.00235,0.66835 -0.158125,0.928906 -0.158125,0.928906 0,0 -0.033437,0.01656 -0.1478125,0.12375 -0.3279421,0.307334 -1.4935937,1.321875 -1.7,1.6 -0.14549,0.196043 -1.1572645,1.444396 -0.9834375,1.902969 0.082064,0.216492 1.7436383,-0.46859 1.3625,-0.331719 -0.6182813,0.222031 2.2624708,-0.847533 2.9299223,-0.678076 0.3063872,0.07779 0.3489793,0.199881 0.3392964,0.420576 -0.00828,0.18875 -0.3046422,0.232796 -0.5846422,0.252796 -0.28,0.02 -0.6845765,-0.0153 -0.7845765,0.184704 -0.1,0.2 0.08,0.46 0.24,0.88 0.16,0.42 1.2256106,2.392601 1.4660388,2.754019 0.3418154,0.513825 1.5686487,1.778168 1.5686487,1.778168 l 0.052187,-0.855 c 0,0 -0.5521875,-1.201093 -0.686875,-2.377187 -0.1345655,-1.175029 0.42,-3.2 1,-3.8 0.5799995,-0.6 1.2599995,-1.64 1.9999995,-2.08 0.74,-0.44 3,-1.36 3.74,-1.48 0.74,-0.12 3,-0.34 3.6,-0.32 0.6,0.02 1.78,0.08 2.12,0.16 0.34,0.08 2.699936,0.240937 3.28,0.28 0.740156,0.04984 1.090156,-0.04141 1.090156,-0.04141 z"
         id="path4"
         sodipodi:nodetypes="cscssssssssscssssssssssccssssssscc" /><path
         style="fill:#c31133;fill-opacity:1"
         d="m 16.473378,16.617009 c 0.04972,0.01105 4.259214,0.502709 4.336554,0.552428 0.07734,0.04972 -0.01105,0.469563 -0.01105,0.469563 l -3.331136,-0.07182 -0.624242,-0.0221 -0.425369,-0.756825 z"
         id="path10" /><g
         id="g14"><g
           id="g5"
           transform="translate(-0.26516504,-0.53033008)"><ellipse
             style="fill:#000000;stroke-width:0.970385"
             id="path2"
             cx="16.16"
             cy="11.559999"
             rx="0.97999996"
             ry="0.96000004" /><path
             style="fill:#000000"
             d="m 11.2,13.19 c 0,0 -0.2,0.81 -0.09,1.29 0.11,0.48 0.44,1.06 0.44,1.06 l 0.04,0.09 -0.25,0.19 C 10.544699,15.312836 9.853687,14.135092 11.06,13.2"
             id="path3"
             sodipodi:nodetypes="cscccc" /><path
             style="fill:#000000;fill-opacity:1;stroke-width:1.08753"
             d="m 9.5656895,13.507812 c 0.061526,0.01172 0.077963,0.881528 0.11794,1.234376 0.044738,0.39487 0.3412045,0.960937 0.3163397,1.164062 -0.013337,0.108951 -0.5801231,-0.464698 -0.6837594,-0.921875 -0.1709011,-0.753906 0.2494797,-1.476563 0.2494797,-1.476563 z"
             id="path5"
             sodipodi:nodetypes="csssc" /></g><path
           style="fill:#ffffff;fill-opacity:1"
           d="m 9.1881226,23.082836 0.2732749,-4.308479 c 0,0 0.019603,-0.45529 0.4921875,-0.875 0.198686,-0.176456 0.625,-0.367187 1.015625,-0.414062 0.390625,-0.04687 5.1875,-0.01563 5.1875,-0.01563 0,0 -0.304688,-0.484375 -0.390625,-0.796875 -0.0078,-0.414062 0.09375,-0.734375 0.359375,-0.945313 0.30221,-0.239989 1.21875,-0.351562 1.976562,-0.429687 0.777753,-0.08018 4.289063,-0.07813 5.101563,-0.328125 0.8125,-0.25 1.28125,-0.640625 1.28125,-0.640625 l 0.859375,-0.90625 c 0,0 -0.143959,0.09915 -0.863951,0.07891 -1.077828,-0.0303 -4.783694,-0.529383 -6.354799,-0.45391 -2.670923,0.128306 -3.43647,0.403337 -4.9375,0.921875 -1.71875,0.59375 -2.851563,1.679688 -3.828125,3 -0.8306969,1.123102 -0.9889562,2.840144 -0.9613301,3.379576 0.034674,0.677051 0.2591748,1.621526 0.5550801,2.323549 0.090999,0.21589 0.2345376,0.410041 0.2345376,0.410041 z"
           id="path6"
           sodipodi:nodetypes="ccssccsssccssssssc" /><path
           style="fill:#ea1940;fill-opacity:1"
           d="m 26.339727,26.958446 c 0,0 0.287263,0.254117 0.795496,0.287262 0.420258,0.02741 1.955592,-0.265164 1.955592,-0.265164 0,0 -0.507588,-0.694895 -1.016466,-1.226389 -0.573624,-0.599118 -1.303728,-1.082758 -1.303728,-1.082758 l -0.397748,1.060661 z"
           id="path14"
           sodipodi:nodetypes="cscsccc" /><path
           style="display:inline;fill:#ea1940;fill-opacity:1"
           d="m 22.439591,28.118543 c 0,0 0.07085,0.812933 0.419845,1.535748 0.267526,0.554088 0.784446,1.193243 0.784446,1.193243 0,0 0.618719,-0.76235 0.740253,-1.248486 0.121534,-0.486136 0.0221,-1.414214 0.0221,-1.414214 l -1.06066,-0.475087 z"
           id="path13"
           sodipodi:nodetypes="cscsccc" /><path
           style="fill:#000000;fill-opacity:1"
           d="m 9.0824913,23.954045 c 0,0 0.1036782,-1.88205 0.265625,-3.984375 0.062551,-0.812014 0.060396,-1.234527 0.2695312,-1.664063 0.1495425,-0.307141 0.4119135,-0.522649 0.7578125,-0.664062 0.579777,-0.237029 0.710937,-0.164063 2.039062,-0.179688 1.328125,-0.01563 3.75,0.0078 3.75,0.0078 0,0 -0.367187,-0.449219 -0.398437,-0.726563 -0.01563,-0.226562 -0.0078,-0.820312 0.320312,-1 0.402344,-0.437499 3.173616,-0.517059 5.203125,-0.605469 1.579233,-0.06879 2.113282,-0.195312 2.558594,-0.445312 0.445313,-0.25 1.875,-1.65625 2.234375,-2.058594 0.34974,-0.391557 0.46875,-0.878906 0.1875,-1.355469 C 25.951713,10.738946 25.617647,10.454032 24.914522,9.7665319 24.109835,9.1571699 23.34421,8.5946699 22.523897,8.0946699 21.703585,7.5946699 20.605825,7.012937 20.016085,6.8329511 19.414522,6.6493574 18.508272,6.3993574 18.430147,6.2665449 18.352022,6.1337324 17.00046,3.8485761 16.523897,3.3017012 16.033925,2.7394371 14.730929,1.6532637 14.328585,1.4345136 13.911086,1.2075237 13.297335,1.0712324 13.043428,1.1259199 c -0.258431,0.055662 -0.26953,0.1875 -0.292968,0.3007812 0.01563,0.1328126 0.617187,1.8789063 0.632812,2.1054688 0.23438,0.5 0.08594,2.3046875 0.03125,2.484375 -0.05469,0.1796875 -0.445312,0.2890625 -0.664062,0.375 -0.21875,0.085937 -2.664063,1.1484375 -3.078125,1.421875 C 9.2582725,8.0868574 7.6645225,9.4306074 7.391085,9.7899819 7.1176475,10.149357 6.84421,10.586857 6.56296,11.03217 6.28171,11.477482 5.7231162,12.961858 5.6528037,13.297795 5.5824917,13.633733 5.56296,14.75092 5.46921,14.96967 5.37546,15.18842 4.203585,16.145451 3.9926475,16.340764 3.78171,16.536076 3.2153038,17.235295 3.0668663,17.446232 2.9184288,17.65717 2.5903035,18.418889 2.5590538,18.567326 c -0.03125,0.148438 0.023833,0.172651 0.2382812,0.152344 0.2081766,-0.01971 2.0170614,-0.69018 2.3046875,-0.773438 0.296875,-0.08594 1.0129118,-0.315558 1.625,-0.265625 0.2924136,0.02385 0.4140625,0.03125 0.453125,0.296875 0.033275,0.226274 -0.03125,0.316406 -0.3359375,0.375 -0.2321946,0.04465 -0.7715739,0.02275 -0.9179688,0.105469 -0.1179842,0.06667 -0.1508685,0.222156 -0.1210937,0.363281 0.026709,0.126592 0.7609561,1.665102 1.1132812,2.265625 0.3915706,0.667415 1.8551294,2.568746 2.0078126,2.6875 0.070312,0.05469 -0.121762,0.904364 -0.3476563,0.726563 -0.6054687,-0.476563 -1.9453877,-2.214862 -2.3125,-2.789063 -0.609375,-0.953125 -1.03125,-2.203125 -1.09375,-2.46875 -0.0625,-0.265625 -0.1328125,-0.476562 -0.1328125,-0.476562 0,0 -0.15625,-0.0078 -0.3828125,0.07031 -0.2265625,0.07813 -1.4140625,0.632815 -1.734375,0.703127 -0.3203125,0.07031 -0.7174986,0.0091 -0.9375,-0.210937 C 1.8168663,19.161076 1.6216935,18.809465 1.891085,18.227482 2.1741785,17.615897 2.5220775,16.882476 3.21921,16.03217 3.7016992,15.443669 4.609835,14.739201 4.6332725,14.649357 4.685036,14.450929 4.8036875,13.463548 4.96921,12.829045 5.15671,12.110295 5.6762412,10.387638 7.1762412,8.7665449 8.1258279,7.7402992 9.6375954,6.7202977 10.453585,6.3837324 c 0.976476,-0.4027601 2.015625,-0.6875 2.132813,-0.734375 0.149539,-0.059815 0.08594,-1.078125 0.04688,-1.3984375 -0.05469,-0.3671875 -0.414065,-1.7109375 -0.515627,-2.078125 -0.08897,-0.3216724 -0.201551,-0.8815915 -0.0625,-1.18749998 0.156251,-0.34375 0.4375,-0.609375 0.898438,-0.640625 0.460937,-0.03125 0.976562,-0.0625 1.671875,0.34375 0.695312,0.40624998 2.585937,2.03906248 3.242187,3.05468748 0.65625,1.015625 0.90625,1.6953125 1.078125,1.859375 0.171875,0.1640625 1.743492,0.65315 2.210938,0.8515625 0.542969,0.2304687 1.647604,0.7953527 3.21875,1.9453125 0.391674,0.2866757 0.896816,0.6939363 1.171875,0.9492188 0.431461,0.4004407 1.546875,1.3085938 1.703125,2.0937498 0.116337,0.584595 -0.05469,1.058594 -0.414063,1.480469 -0.359375,0.421875 -1.245641,1.479854 -1.550781,1.789063 -0.292969,0.296875 -0.632812,0.542968 -0.808594,0.843749 -0.325753,0.5574 -0.312494,0.917969 -0.554687,0.945313 -0.529321,0.05976 -0.695313,-0.351563 -0.632813,-0.421875 0.0625,-0.07031 0.369189,-0.708458 0.351563,-0.757813 -0.01953,-0.05468 -0.226563,-0.03515 -0.476563,-0.0078 -0.289062,0.05469 -1.21875,0.203125 -1.679687,0.210937 -0.457032,0.02343 -2.835938,0.11719 -3.023438,0.125 -0.1875,0.0078 -1.023437,0.04688 -1.054687,0.04688 -0.03125,0 0.203126,0.257811 0.328125,0.3125 0.125,0.05469 0.233992,0.122523 0.398437,0.04687 0.104794,-0.04821 0.199222,-0.203125 0.367188,-0.1875 0.210606,0.01959 0.214195,0.148392 0.289062,0.257813 0.05078,0.07422 0.196714,0.182581 0.390625,0.08984 0.179688,-0.08593 0.324219,-0.207032 0.464844,-0.207032 0.140625,0 0.269531,0.101568 0.449219,0.226563 0.179687,0.125 0.433594,0.265624 0.511719,0.187499 0.07813,-0.07813 0.328124,-0.242187 0.582031,-0.296874 0.265625,-0.0078 0.308593,0.02735 0.386718,0.08204 0.07813,0.05469 0.277344,0.0078 0.410157,-0.125 0.132812,-0.132813 0.103939,-0.178609 0.332031,-0.28125 0.07813,-0.03516 0.300781,-0.08984 0.378906,0.01953 0.07839,0.109744 0.128901,0.171875 0.230469,0.25 0.07813,0.02344 0.289063,0.01954 0.40625,-0.0039 0.121094,-0.121096 0.25,1.277344 0.25,1.277344 0,0 -1.625,-0.01953 -1.808594,0.01563 -0.172431,0.03302 -1.257812,-0.05468 -1.648437,-0.109375 -0.390625,-0.05472 -3.183594,-0.425814 -3.363282,-0.472689 -0.179687,-0.04687 -0.199218,-0.05078 -0.167968,0.07422 0.03125,0.125 0.08594,0.347656 0.164062,0.433594 0.07813,0.08594 0.191407,0.179687 0.191407,0.179687 0,0 0.140624,0.792969 0.04687,0.808594 -0.09375,0.01563 -0.785156,0.01562 -1.074218,0.01562 -0.289063,0 -4.726563,0.01562 -4.882813,0.03905 -0.15625,0.02344 -0.32313,0.08289 -0.476562,0.1875 -0.171875,0.117185 -0.289611,0.203548 -0.335938,0.359375 -0.04297,0.144531 -0.07031,0.472656 -0.07422,0.644531 -0.0078,0.339843 -0.052,1.381711 -0.07812,1.558593 -0.0362,0.24504 -0.125003,2.777345 -0.132813,2.88672 -0.0056,0.07792 -0.6796872,0.02734 -0.6796872,0.02734 z"
           id="path7"
           sodipodi:nodetypes="csssccccsssscssssssccssssssssssssssssssssssccssssssssscsssssssssssssssscccssssssssscsssscccssssccsscsscsscc" /><path
           style="fill:#000000;fill-opacity:1"
           d="m 8.5405241,24.472524 c 0,0 0.3327849,0.274363 0.3609733,0.363377 0.037918,0.119736 -0.082833,1.443675 -0.00742,1.873953 0.079629,0.45433 0.4234076,0.953238 0.7402524,1.160097 0.2583192,0.168649 0.5761222,0.315438 1.6351842,0.359078 0.667961,0.02752 6.855899,-0.03247 7.131835,-0.03315 0.248592,-0.0046 4.386272,0.04419 5.126524,0.06077 0.728534,-0.0303 1.61214,-0.06333 1.877305,-0.173819 0.265165,-0.110485 0.915296,-0.661093 1.013622,-0.881317 0.188329,-0.421807 0.330001,-1.414213 0.401539,-2.049505 0.07126,-0.632827 0.497185,-4.469136 0.546903,-4.877932 0.04972,-0.408796 0.248444,-1.633968 0.218405,-1.949397 -0.05176,-0.543518 -0.218359,-0.89999 -0.52224,-1.210486 -0.556401,-0.568512 -0.89001,-0.711406 -1.825298,-0.706551 -0.712814,0.0037 -1.058372,0.0015 -1.371637,0.01105 -0.315125,0.0096 -0.509851,-0.01713 -0.636909,-0.04475 -0.127059,-0.02762 -0.0221,0.795496 -0.0221,0.795496 l 0.370126,0.176776 c 0,0 1.791482,-0.0042 1.968259,0.0013 0.176776,0.0055 0.346965,0.01403 0.589479,0.125718 0.187825,0.154679 0.45299,0.359077 0.502708,0.657388 0.04972,0.298311 0,0.668437 -0.03867,0.955699 -0.03867,0.287262 -0.392223,3.270369 -0.408796,3.458194 -0.01657,0.187825 -0.396407,3.646575 -0.430893,3.82832 -0.02378,0.125303 -0.06183,0.36421 -0.164503,0.497185 -0.08862,0.114773 -0.294011,0.364602 -0.658613,0.41432 -0.364602,0.04972 -6.259,-0.0221 -6.513117,-0.01657 -0.254116,0.0055 -7.690734,0.01038 -7.866563,0 -0.16144,-0.0095 -0.427542,-0.186877 -0.543551,-0.374702 -0.11601,-0.187826 -0.225152,-0.657512 -0.215447,-1.038563 0.01058,-0.415198 0.142878,-1.81044 0.143516,-1.906545 5.91e-4,-0.08908 -0.831877,-0.0058 -0.831877,-0.0058 0,0 -0.1767767,-0.132583 -0.2375437,-0.198874 -0.060767,-0.06629 -0.3314563,0.729204 -0.3314563,0.729204 z"
           id="path8"
           sodipodi:nodetypes="cssssccsssssssssccccsssssscsssscscc" /><path
           style="fill:#000000;fill-opacity:1"
           d="m 21.898898,17.340764 c 0,0 -0.16797,-0.03907 -0.363282,0.261718 -0.107658,0.165796 -0.08204,0.375 -0.269531,0.515625 -0.1875,0.140625 -0.335938,0.195313 -0.617188,0.203125 -0.28125,0.0078 -1.890625,-0.01953 -2.074218,-0.01953 -0.183594,0 -1.609375,-0.02734 -1.609375,-0.02734 l -0.175782,-0.972656 c 0,0 -0.01669,0.07417 0.246094,0.14453 0.114129,0.03056 3.445313,0.01954 3.53125,-0.01172 0.08594,-0.03125 0.175781,-0.132813 0.21875,-0.191407 0.04297,-0.05859 1.0625,-0.06641 1.0625,-0.06641 z"
           id="path9"
           sodipodi:nodetypes="csscsccscscc" /></g></g><text
       xml:space="preserve"
       style="font-size:8px;text-align:start;writing-mode:lr-tb;direction:ltr;text-anchor:start;fill:#000000;fill-opacity:1"
       x="14.949386"
       y="26.01499"
       id="text15"
       transform="matrix(1.0174649,0.00531987,-0.12874729,0.98216172,0,0)"
       inkscape:transform-center-x="0.044194174"
       inkscape:transform-center-y="-0.044194174"><tspan
         sodipodi:role="line"
         id="tspan15"
         x="14.949386"
         y="26.01499"
         style="font-style:normal;font-variant:normal;font-weight:bold;font-stretch:normal;font-family:sans-serif;-inkscape-font-specification:'sans-serif Bold'">FM</tspan></text></g></svg>
