<?xml version="1.0" encoding="UTF-8" standalone="no"?>
<!-- Created with Inkscape (http://www.inkscape.org/) -->

<svg
   width="32"
   height="32"
   viewBox="0 0 32 32"
   version="1.1"
   id="svg1"
   xml:space="preserve"
   inkscape:version="1.4 (e7c3feb100, 2024-10-09)"
   sodipodi:docname="FolderL.svg"
   xmlns:inkscape="http://www.inkscape.org/namespaces/inkscape"
   xmlns:sodipodi="http://sodipodi.sourceforge.net/DTD/sodipodi-0.dtd"
   xmlns="http://www.w3.org/2000/svg"
   xmlns:svg="http://www.w3.org/2000/svg"><sodipodi:namedview
     id="namedview1"
     pagecolor="#ffffff"
     bordercolor="#000000"
     borderopacity="0.25"
     inkscape:showpageshadow="2"
     inkscape:pageopacity="0.0"
     inkscape:pagecheckerboard="0"
     inkscape:deskcolor="#d1d1d1"
     inkscape:document-units="px"
     inkscape:zoom="16"
     inkscape:cx="31.65625"
     inkscape:cy="16.5"
     inkscape:window-width="1920"
     inkscape:window-height="1011"
     inkscape:window-x="0"
     inkscape:window-y="0"
     inkscape:window-maximized="1"
     inkscape:current-layer="layer1" /><defs
     id="defs1" /><g
     inkscape:label="Слой 1"
     inkscape:groupmode="layer"
     id="layer1"><path
       style="fill:#cccccc;fill-opacity:1"
       d="m 1.21875,9.65625 0.015625,-3.6875 c 0,0 -0.046295,-0.5410658 0.3359375,-0.90625 C 1.9337034,4.7153172 2.40625,4.734375 2.40625,4.734375 L 9.796875,4.75 c 0,0 0.347268,-0.00861 0.792969,0.4375 0.379989,0.3803376 0.373674,1.0875814 0.753906,1.3515625 0.618795,0.4296064 1.011719,0.359375 1.011719,0.359375 L 29.515625,6.96875 c 0,0 0.405442,-0.03895 0.75,0.3164062 0.340059,0.3507169 0.328125,0.6992188 0.328125,0.6992188 V 9.46875 Z"
       id="path2"
       sodipodi:nodetypes="ccsccssccsccc" /><path
       style="fill:#ffffff;fill-opacity:1"
       d="m 16.52,27.6 12.6,0.04 c 0,0 1.136411,0.101782 1.35125,-0.285 C 30.681018,26.977348 30.68,26.68 30.64,26.04 30.6,25.4 30.608184,9.36 30.608184,9.36 c 0,0 -0.01299,-0.3261944 -0.447393,-0.7921614 C 29.72001,8.095033 29.009,8.1944757 29.009,8.1944757 L 2.6,8.2 C 2.6,8.2 2.1691914,8.0933341 1.6792354,8.5754053 1.2034918,9.0434929 1.2119757,9.5850952 1.2119757,9.5850952 l 0.00459,17.3947488 c 0,0 -0.051291,0.391766 0.1726562,0.564531 0.1784375,0.137656 0.521875,0.107344 0.521875,0.107344 z"
       id="path1"
       sodipodi:nodetypes="ccsscsccsccscc" /></g></svg>
